<?xml version="1.0" encoding="UTF-8" standalone="no"?>
<!-- Created with Inkscape (http://www.inkscape.org/) -->

<svg
   xmlns:dc="http://purl.org/dc/elements/1.1/"
   xmlns:cc="http://creativecommons.org/ns#"
   xmlns:rdf="http://www.w3.org/1999/02/22-rdf-syntax-ns#"
   xmlns:svg="http://www.w3.org/2000/svg"
   xmlns="http://www.w3.org/2000/svg"
   version="1.1"
   width="570"
   height="288"
   id="svg2">
  <defs
     id="defs4" />
  <metadata
     id="metadata7">
    <rdf:RDF>
      <cc:Work
         rdf:about="">
        <dc:format>image/svg+xml</dc:format>
        <dc:type
           rdf:resource="http://purl.org/dc/dcmitype/StillImage" />
        <dc:title></dc:title>
      </cc:Work>
    </rdf:RDF>
  </metadata>
  <g
     id="layer2">
    <rect
       width="570"
       height="288"
       x="-3.4165039e-06"
       y="0"
       id="rect3024"
       style="fill:#f9f9f9;fill-opacity:0.78431373" />
  </g>
  <g
     transform="translate(-90.853664,-337.6575)"
     id="layer1">
    <g
       id="text2985"
       style="font-size:58.78388214px;font-style:normal;font-variant:normal;font-weight:600;font-stretch:normal;text-align:start;line-height:125%;letter-spacing:0px;word-spacing:0px;writing-mode:lr-tb;text-anchor:start;fill:#000000;fill-opacity:1;stroke:none;font-family:URW Gothic L;-inkscape-font-specification:URW Gothic L Semi-Bold">
      <path
         d="m 166.27649,425.55493 8.0534,0 0,-32.56627 11.34529,32.56627 6.58379,0 11.34529,-32.56627 0,32.56627 8.05339,0 0,-43.44129 -11.05137,0 -11.58042,32.91898 -11.698,-32.91898 -11.05137,0 0,43.44129"
         id="path3876" />
      <path
         d="m 218.38198,425.55493 7.81825,0 0,-32.56627 -7.81825,0 0,32.56627 m 0,-36.0933 7.81825,0 0,-7.34799 -7.81825,0 0,7.34799"
         id="path3878" />
      <path
         d="m 232.50388,425.55493 7.81826,0 0,-16.51827 c 0,-3.23311 0.29392,-5.05541 1.11689,-6.52501 1.11689,-1.99865 3.17433,-3.11555 5.76082,-3.11555 4.58514,0 6.34866,2.70407 6.34866,9.52299 l 0,16.63584 7.81826,0 0,-18.39935 c 0,-4.76149 -0.58784,-7.40678 -2.17501,-9.81691 -2.175,-3.35068 -5.93717,-5.17298 -10.58109,-5.17298 -3.35068,0 -5.93718,0.94054 -8.28853,3.05676 l 0,-13.10881 -7.81826,0 0,43.44129"
         id="path3880" />
      <path
         d="m 300.72901,392.98866 -7.17164,0 0,4.35001 c -2.70405,-3.58582 -5.93717,-5.1142 -10.63988,-5.1142 -9.64055,0 -16.57705,7.23043 -16.57705,17.16489 0,9.8169 6.87772,16.92976 16.4007,16.92976 4.58514,0 7.70069,-1.4696 10.81623,-4.99663 l 0,4.23244 7.17164,0 0,-32.56627 m -16.98854,6.40744 c 5.58446,0 9.58177,4.17367 9.58177,10.11083 0,2.35135 -0.94055,5.05542 -2.35136,6.70136 -1.58716,1.88109 -4.11487,2.9392 -7.11285,2.9392 -5.70203,0 -9.64055,-3.87974 -9.64055,-9.58177 0,-5.93717 3.93852,-10.16962 9.52299,-10.16962"
         id="path3882" />
      <path
         d="m 306.5578,425.55493 7.81825,0 0,-32.56627 -7.81825,0 0,32.56627 m 0,-36.0933 7.81825,0 0,-7.34799 -7.81825,0 0,7.34799"
         id="path3884" />
      <path
         d="m 337.92084,425.55493 11.58043,0 c 4.82027,0 8.34731,-0.76419 10.99258,-2.41014 3.58582,-2.175 5.64326,-6.05474 5.64326,-10.52231 0,-2.70406 -0.7642,-5.34934 -2.11622,-7.11285 -1.23446,-1.64595 -2.46893,-2.46893 -5.29055,-3.6446 3.46824,-1.8223 4.82027,-4.11488 4.82027,-8.17096 0,-4.05609 -1.8223,-7.46556 -4.93784,-9.46421 -2.58649,-1.64594 -5.29056,-2.11622 -11.75678,-2.11622 l -8.93515,0 0,43.44129 m 8.05339,-7.70069 0,-11.11015 3.82096,0 c 5.58446,0 8.22974,1.8223 8.22974,5.70204 0,3.76216 -2.41014,5.40811 -8.05339,5.40811 l -3.99731,0 m 0,-18.98719 0,-8.87637 3.2919,0 c 4.17365,0 6.23109,1.41082 6.23109,4.40879 0,3.11555 -2.05744,4.46758 -6.9365,4.46758 l -2.58649,0"
         id="path3886" />
      <path
         d="m 404.17487,392.98866 -7.17163,0 0,4.35001 c -2.70406,-3.58582 -5.93718,-5.1142 -10.63989,-5.1142 -9.64054,0 -16.57705,7.23043 -16.57705,17.16489 0,9.8169 6.87772,16.92976 16.4007,16.92976 4.58514,0 7.70069,-1.4696 10.81624,-4.99663 l 0,4.23244 7.17163,0 0,-32.56627 m -16.98854,6.40744 c 5.58446,0 9.58177,4.17367 9.58177,10.11083 0,2.35135 -0.94054,5.05542 -2.35136,6.70136 -1.58716,1.88109 -4.11487,2.9392 -7.11285,2.9392 -5.70203,0 -9.64055,-3.87974 -9.64055,-9.58177 0,-5.93717 3.93852,-10.16962 9.52299,-10.16962"
         id="path3888" />
      <path
         d="m 410.00366,425.55493 7.81826,0 0,-43.44129 -7.81826,0 0,43.44129"
         id="path3890" />
      <path
         d="m 457.10334,392.98866 -7.17164,0 0,4.35001 c -2.70405,-3.58582 -5.93717,-5.1142 -10.63988,-5.1142 -9.64055,0 -16.57706,7.23043 -16.57706,17.16489 0,9.8169 6.87773,16.92976 16.40071,16.92976 4.58514,0 7.70069,-1.4696 10.81623,-4.99663 l 0,4.23244 7.17164,0 0,-32.56627 m -16.98855,6.40744 c 5.58447,0 9.58178,4.17367 9.58178,10.11083 0,2.35135 -0.94055,5.05542 -2.35136,6.70136 -1.58716,1.88109 -4.11487,2.9392 -7.11285,2.9392 -5.70203,0 -9.64056,-3.87974 -9.64056,-9.58177 0,-5.93717 3.93853,-10.16962 9.52299,-10.16962"
         id="path3892" />
      <path
         d="m 462.93213,425.55493 7.81825,0 0,-15.34259 c 0,-4.35 0.29392,-6.23109 1.29325,-7.81826 1.23446,-1.93986 3.2919,-2.99798 5.76082,-2.99798 1.99865,0 3.6446,0.70541 4.70271,2.05744 1.05811,1.41081 1.52838,3.82096 1.52838,8.17096 l 0,15.93043 7.81826,0 0,-17.45881 c 0,-5.8196 -0.58784,-8.64123 -2.35136,-11.16894 -2.11622,-3.05676 -5.64326,-4.70271 -10.16961,-4.70271 -3.70338,0 -6.28988,1.1169 -9.17029,3.87974 l 0,-3.11555 -7.23041,0 0,32.56627"
         id="path3894" />
    </g>
    <g
       id="text2989"
       style="font-size:51.97940445px;font-style:normal;font-variant:normal;font-weight:normal;font-stretch:normal;text-align:start;line-height:125%;letter-spacing:0px;word-spacing:0px;writing-mode:lr-tb;text-anchor:start;fill:#000000;fill-opacity:1;stroke:none;font-family:Museum;-inkscape-font-specification:Museum">
      <path
         d="m 351.46093,446.67212 c -3.58658,0 -7.12119,0 -10.65578,-0.10396 -0.36386,0 -0.67574,0 -0.98761,-0.15594 -0.46782,-0.15594 -0.88365,-0.36385 -1.24751,-0.67573 -0.10396,-0.052 -0.20791,-0.10396 -0.36385,-0.15594 -0.10396,-0.052 -0.20792,-0.10396 -0.31188,-0.10396 -0.15594,0.052 -0.2599,0.10396 -0.36385,0.20792 -0.10396,0.15594 -0.15594,0.2599 -0.15594,0.36386 -0.36386,0.9876 -0.77969,1.92323 -1.14355,2.85886 -0.31188,0.67573 -0.62375,1.29949 -0.88365,1.87126 -0.10396,0.15594 -0.15594,0.31188 -0.20792,0.46782 0,0.15593 0,0.31187 0.10396,0.41583 0.052,0.15594 0.15594,0.2599 0.2599,0.36386 0.15594,0.10396 0.31187,0.15594 0.46781,0.15594 0.10396,0.052 0.2599,0.10395 0.36386,0.052 0.15594,0 0.31188,0 0.41583,-0.052 0.10396,-0.052 0.2599,-0.15594 0.31188,-0.2599 0.10396,-0.10396 0.15594,-0.20792 0.2599,-0.36386 l 0.46781,-0.88365 c 0.10396,-0.25989 0.2599,-0.51979 0.46782,-0.72771 0.20791,-0.20792 0.46781,-0.41583 0.72771,-0.51979 0.51979,-0.2599 1.14355,-0.2599 1.7673,-0.36386 1.19552,-0.10396 2.44303,-0.15594 3.74252,-0.20792 1.55938,0 3.11876,0.052 4.67814,0.10396 0.20792,1.40344 0.2599,2.75491 0.31188,4.10638 0,3.37865 0,6.70534 0,10.03202 -0.052,3.58658 -0.15594,7.12118 -0.31188,10.6038 -0.052,0.20792 -0.052,0.36385 -0.052,0.51979 0,0.15594 -0.052,0.31188 -0.15594,0.41584 -0.052,0.15594 -0.15593,0.2599 -0.31187,0.36385 -0.10396,0.052 -0.2599,0.10396 -0.41584,0.10396 l -3.5346,0.57178 c -0.20791,0.052 -0.36385,0.10396 -0.51979,0.15593 -0.10396,0.10396 -0.2599,0.20792 -0.31188,0.36386 -0.052,0.15594 -0.10396,0.31188 -0.052,0.46781 0,0.20792 0.052,0.36386 0.15594,0.46782 0.052,0.20792 0.15594,0.36386 0.2599,0.46781 0.15594,0.15594 0.2599,0.2599 0.41583,0.31188 0.15594,0.10396 0.36386,0.15594 0.5198,0.10396 0.20791,0 0.36385,-0.052 0.57177,-0.10396 1.81928,-0.51979 3.74252,-0.77969 5.71774,-0.88365 1.92323,-0.052 3.84647,0.15594 5.76971,0.57177 0.10396,0.052 0.2599,0.10396 0.41583,0.10396 0.15594,-0.052 0.31188,-0.052 0.41584,-0.15594 0.10396,-0.052 0.20792,-0.15593 0.31188,-0.31187 0.10395,-0.10396 0.15593,-0.2599 0.20791,-0.41584 0,-0.10396 0.052,-0.25989 0.052,-0.41583 0,-0.15594 -0.052,-0.31188 -0.15593,-0.41584 -0.052,-0.15594 -0.15594,-0.25989 -0.31188,-0.31187 -0.15594,-0.052 -0.31188,-0.052 -0.41584,-0.10396 l -2.49501,-0.20792 c -0.31187,0 -0.62375,-0.052 -0.93563,-0.20792 -0.25989,-0.10396 -0.46781,-0.36385 -0.57177,-0.62375 -0.15594,-0.31188 -0.20792,-0.62375 -0.20792,-0.93563 0,-0.31188 0,-0.62375 0,-0.93563 -0.10396,-3.37866 -0.10396,-6.8093 -0.052,-10.29192 0,-4.5222 0.10396,-9.0964 0.2599,-13.67058 l 7.22514,0.20791 c 0.93562,0.052 1.92324,0.15594 2.85886,0.5198 0.10396,0.052 0.20792,0.15594 0.31188,0.20791 0.15594,0.052 0.2599,0.10396 0.31188,0.20792 0.10396,0.10396 0.15593,0.2599 0.15593,0.36386 0.052,0.15594 0,0.2599 0,0.36385 l -0.20791,0.77969 c -0.052,0.15594 -0.10396,0.2599 -0.052,0.36386 0,0.10396 0.052,0.20792 0.15594,0.31188 0.052,0.052 0.15593,0.10396 0.25989,0.15594 0.10396,0 0.20792,0 0.36386,0 0.10396,0.052 0.20792,0.052 0.31188,0 0.10395,0 0.20791,-0.052 0.31187,-0.10396 0.10396,-0.052 0.20792,-0.15594 0.20792,-0.2599 0.052,-0.10396 0.052,-0.20792 0.10396,-0.36386 0,-0.88365 0.20792,-1.71532 0.51979,-2.59897 0.10396,-0.36385 0.31188,-0.77969 0.5198,-1.19552 0.052,-0.10396 0.10396,-0.2599 0.20791,-0.41584 0.052,-0.10396 0.052,-0.31187 0.052,-0.46781 -0.052,-0.10396 -0.15594,-0.2599 -0.20791,-0.36386 -0.10396,-0.10396 -0.20792,-0.20792 -0.31188,-0.31187 -0.10396,-0.052 -0.15594,-0.10396 -0.2599,-0.15594 -0.10396,0 -0.20792,-0.052 -0.25989,-0.052 -0.10396,0.052 -0.15594,0.052 -0.2599,0.10396 -0.052,0.052 -0.10396,0.10396 -0.15594,0.15593 -0.10396,0.10396 -0.15594,0.2599 -0.2599,0.31188 -0.10396,0.052 -0.15594,0.10396 -0.25989,0.15594 -0.052,0 -0.15594,0 -0.2599,0 -0.15594,0.052 -0.31188,0 -0.46782,0 -4.41824,0.052 -8.8365,0.10396 -13.20276,0.052"
         id="path3859" />
      <path
         d="m 376.90891,460.55062 c -0.57178,0.2599 -1.14355,0.57177 -1.66335,0.83167 0,-2.65095 0.052,-5.35388 0.20792,-8.05681 0.10396,-2.23511 0.2599,-4.47023 0.46782,-6.70534 0.052,-0.57177 0.10396,-1.14355 0.36385,-1.71532 0.052,-0.20792 0.15594,-0.41584 0.20792,-0.67573 0,-0.15594 0,-0.2599 -0.052,-0.36386 -0.052,-0.15594 -0.10396,-0.2599 -0.15594,-0.36386 -0.20791,-0.15593 -0.41583,-0.20791 -0.62375,-0.20791 -0.2599,0 -0.46781,0.10396 -0.62375,0.20791 l -0.93563,0.5198 c -0.88365,0.46781 -1.71532,0.93563 -2.54699,1.29948 -0.77969,0.36386 -1.55939,0.67574 -2.2871,0.93563 -0.10396,0.052 -0.20791,0.10396 -0.25989,0.15594 -0.10396,0 -0.15594,0.10396 -0.20792,0.15594 -0.10396,0.15594 -0.15594,0.31188 -0.10396,0.46781 0,0.15594 0,0.31188 0.052,0.41584 0.052,0.15594 0.10396,0.2599 0.20792,0.36386 0.10396,0.10395 0.25989,0.15593 0.41583,0.15593 0.10396,0 0.2599,-0.052 0.41584,-0.10396 l 0.57177,-0.20791 c 0.10396,0 0.20792,-0.052 0.36386,-0.052 0.15593,0 0.25989,0 0.41583,0.052 0.20792,0.15594 0.36386,0.36385 0.46782,0.57177 0.10396,0.2599 0.20791,0.51979 0.25989,0.72771 0.052,0.5198 0.15594,0.98761 0.20792,1.45543 0.052,0.51979 0.052,0.9876 0.10396,1.45542 0,3.48262 -0.052,6.91326 -0.10396,10.3439 -0.10396,3.95043 -0.2599,7.84889 -0.41583,11.69537 -0.052,0.25989 -0.052,0.46781 -0.10396,0.72771 -0.052,0.20792 -0.10396,0.41583 -0.2599,0.62375 -0.10396,0.15594 -0.31188,0.31188 -0.51979,0.41584 -0.20792,0.10395 -0.41584,0.15593 -0.62376,0.15593 l -0.83167,0.15594 c -0.10396,0.052 -0.20791,0.052 -0.25989,0.10396 -0.052,0.052 -0.15594,0.10396 -0.15594,0.15594 -0.052,0.10396 -0.052,0.15594 -0.10396,0.2599 0,0.052 0,0.15593 0.052,0.20791 0,0.10396 0,0.20792 0,0.31188 0.052,0.10396 0.052,0.15594 0.15594,0.2599 0.052,0.052 0.10396,0.10396 0.20791,0.15594 0.10396,0 0.20792,0 0.31188,-0.052 1.2475,-0.15594 2.54699,-0.2599 3.89846,-0.31188 1.35146,0 2.75491,0.10396 4.15835,0.2599 0.052,0.052 0.15594,0.052 0.20792,0.052 0.10395,-0.052 0.15593,-0.052 0.20791,-0.10396 0.10396,-0.052 0.10396,-0.15594 0.15594,-0.20792 0.052,-0.052 0.052,-0.15594 0.10396,-0.2599 0,-0.052 0,-0.15594 0,-0.25989 0,-0.10396 0,-0.20792 -0.052,-0.31188 -0.052,-0.052 -0.10396,-0.15594 -0.20792,-0.20792 -0.10396,-0.052 -0.20791,-0.052 -0.25989,-0.10396 l -1.50741,-0.25989 c -0.25989,0 -0.51979,-0.052 -0.72771,-0.20792 -0.15594,-0.10396 -0.31187,-0.31188 -0.41583,-0.5198 -0.10396,-0.20791 -0.15594,-0.46781 -0.15594,-0.72771 0,-0.20791 0,-0.46781 0,-0.72771 -0.052,-0.98761 -0.10396,-2.0272 -0.052,-3.06678 0,-2.54699 0.10396,-5.09399 0.36385,-7.69296 0.62376,-0.36385 1.35147,-0.62375 2.13116,-0.88365 0.93563,-0.25989 1.92324,-0.41583 2.96283,-0.51979 0.41583,0 0.88365,0 1.29948,0.052 0.46782,0.052 0.88365,0.20792 1.29949,0.41584 0.51979,0.36385 0.93563,0.83167 1.19552,1.40344 0.2599,0.57177 0.41584,1.19553 0.5198,1.81928 0.15594,1.40344 0.20791,2.80689 0.31187,4.21033 0.052,1.81928 0,3.63856 -0.25989,5.40586 -0.052,0.15594 -0.052,0.31187 -0.10396,0.46781 -0.052,0.15594 -0.15594,0.31188 -0.2599,0.41584 -0.052,0.10396 -0.20792,0.20792 -0.31188,0.31187 -0.15593,0.052 -0.31187,0.10396 -0.41583,0.15594 l -0.72771,0.2599 c -0.10396,0.052 -0.15594,0.10396 -0.2599,0.15594 -0.052,0.052 -0.10396,0.10396 -0.15594,0.15594 0,0.10395 -0.052,0.15593 -0.052,0.25989 0,0.052 0,0.15594 0.052,0.20792 0,0.10396 0,0.15594 0,0.2599 0.052,0.052 0.052,0.15594 0.10396,0.20792 0.052,0.052 0.15594,0.052 0.20792,0.10395 0.10396,0 0.15594,0 0.2599,-0.052 1.29948,-0.15593 2.65095,-0.31187 4.00241,-0.36385 1.14355,0 2.33907,0.052 3.5346,0.10396 0.052,0.052 0.15594,0.052 0.20792,0 0.10396,0 0.15594,-0.052 0.25989,-0.10396 0.052,-0.052 0.10396,-0.10396 0.10396,-0.20792 0.052,-0.052 0.052,-0.15594 0.10396,-0.2599 0,-0.052 0,-0.15593 0,-0.25989 -0.052,-0.10396 -0.052,-0.20792 -0.10396,-0.2599 -0.052,-0.10396 -0.15594,-0.15594 -0.20791,-0.20792 -0.10396,0 -0.20792,0 -0.2599,-0.052 l -1.71532,-0.10396 c -0.15594,0 -0.31188,0 -0.46782,-0.052 -0.15594,-0.052 -0.25989,-0.15594 -0.36385,-0.2599 -0.10396,-0.15594 -0.15594,-0.31188 -0.15594,-0.46782 -0.052,-0.15593 -0.052,-0.31187 0,-0.46781 0,-1.14355 0,-2.33908 0.052,-3.5346 0,-1.40344 0,-2.80689 0,-4.26231 -0.052,-0.83167 -0.052,-1.66334 -0.10396,-2.54699 -0.10396,-0.83167 -0.2599,-1.71532 -0.62375,-2.49501 -0.31188,-0.57178 -0.72772,-1.14355 -1.24751,-1.55939 -0.51979,-0.41583 -1.14355,-0.72771 -1.7673,-0.93563 -1.2475,-0.31187 -2.54699,-0.15593 -3.74252,0.10396 -1.2475,0.31188 -2.49501,0.72772 -3.63855,1.19553"
         id="path3861" />
      <path
         d="m 400.16807,459.45905 c -1.92324,0.93563 -3.53461,2.44304 -4.57419,4.26231 -1.03959,1.87126 -1.5074,4.00242 -1.19553,6.08159 0.20792,1.97522 1.14355,3.89846 2.65095,5.19794 0.57177,0.57178 1.19553,0.98761 1.92324,1.35147 1.19552,0.67573 2.54699,1.14355 3.95043,1.29948 2.59897,0.41584 5.40586,-0.2599 7.53702,-1.92323 1.55938,-1.19553 2.70293,-2.96283 3.2747,-4.88607 0.51979,-1.81928 0.51979,-3.7945 -0.052,-5.61377 -0.57177,-1.81928 -1.71532,-3.48263 -3.22272,-4.67815 -1.29949,-0.93563 -2.75491,-1.55938 -4.31429,-1.87126 -2.0272,-0.31188 -4.15836,-0.052 -5.97763,0.77969 m 3.32668,1.03959 c 1.14354,0 2.33907,0.41584 3.2747,1.03959 0.98761,0.67573 1.81928,1.55938 2.44303,2.54699 0.83167,1.45542 1.29949,3.06679 1.35147,4.73012 0.052,1.66334 -0.31188,3.32669 -1.19553,4.67815 -0.51979,0.72771 -1.14355,1.35147 -1.87126,1.81928 -0.72771,0.41584 -1.55938,0.72771 -2.39105,0.72771 -1.35146,0.10396 -2.70293,-0.36385 -3.74252,-1.14354 -1.03959,-0.83167 -1.87126,-1.92324 -2.44303,-3.11877 -0.72771,-1.40344 -1.14355,-2.96283 -1.19553,-4.52221 0,-1.55938 0.41584,-3.17074 1.35147,-4.47023 0.46781,-0.67573 1.14355,-1.2475 1.92324,-1.66334 0.72771,-0.36385 1.61136,-0.57177 2.49501,-0.62375"
         id="path3863" />
      <path
         d="m 422.44124,464.70897 c 0.052,-1.14354 0.15594,-2.28709 0.36386,-3.48262 0.052,-0.57177 0.15594,-1.19553 0.31188,-1.81928 0,-0.052 0,-0.15594 0,-0.20791 0,-0.10396 0,-0.15594 0,-0.2599 -0.052,-0.15594 -0.15594,-0.31188 -0.2599,-0.41584 -0.15594,-0.10396 -0.36386,-0.15594 -0.51979,-0.15594 -0.10396,0 -0.15594,0 -0.2599,0.052 -0.10396,0.052 -0.15594,0.10396 -0.20792,0.10396 -0.88365,0.57178 -1.71532,1.09157 -2.59897,1.55938 -0.83167,0.46782 -1.61136,0.83168 -2.39105,1.19553 -0.10396,0.052 -0.20792,0.10396 -0.31188,0.15594 -0.052,0.10396 -0.10396,0.15594 -0.15594,0.2599 -0.052,0.10396 -0.052,0.20791 -0.052,0.31187 0,0.10396 0,0.20792 0.052,0.2599 0,0.10396 0,0.20792 0.052,0.2599 0.052,0.10396 0.10396,0.15594 0.20792,0.20791 0.052,0.052 0.15594,0.10396 0.20792,0.10396 0.10396,0 0.20792,-0.052 0.31187,-0.10396 l 0.83167,-0.31187 c 0.10396,0 0.20792,-0.052 0.36386,-0.052 0.15594,0 0.2599,0.052 0.36386,0.10396 0.10396,0.10396 0.15593,0.20792 0.20791,0.36385 0,0.10396 0.052,0.2599 0.052,0.36386 -0.052,1.71532 -0.052,3.37866 -0.10396,4.99002 -0.052,1.45542 -0.15593,2.85887 0,4.26231 0.052,0.72771 0.15594,1.45543 0.36386,2.13116 0.2599,0.67573 0.62375,1.29948 1.14355,1.7673 0.46781,0.51979 1.03959,0.88365 1.71532,1.09157 0.62375,0.20791 1.29948,0.25989 2.02719,0.20791 1.55938,-0.10396 3.06679,-0.72771 4.57419,-1.45542 l 2.85887,-1.40344 c -0.052,0.57177 0,1.14354 0.10396,1.66334 0,0.31187 0.052,0.62375 0.15594,0.88365 0,0.15594 0.052,0.31187 0.10396,0.41583 0.052,0.10396 0.15593,0.20792 0.25989,0.31188 0.15594,0.052 0.2599,0.052 0.41584,0.052 0.15594,0 0.25989,-0.052 0.41583,-0.15594 0.67573,-0.2599 1.40345,-0.57177 2.13116,-0.83167 0.77969,-0.2599 1.61136,-0.46782 2.44303,-0.67573 0.052,0 0.15594,0 0.20792,-0.052 0.10396,-0.052 0.15594,-0.15594 0.20792,-0.20792 0.052,-0.10396 0.052,-0.15594 0.052,-0.2599 0,-0.10396 0,-0.20791 0,-0.31187 -0.052,-0.052 -0.052,-0.15594 -0.10395,-0.20792 -0.052,-0.10396 -0.10396,-0.15594 -0.15594,-0.20792 -0.052,-0.052 -0.15594,-0.10396 -0.2599,-0.10396 -0.052,0 -0.15594,0 -0.20792,0 l -1.45542,0.36386 c -0.15594,0.052 -0.2599,0.10396 -0.36386,0.052 -0.15593,0 -0.25989,-0.052 -0.36385,-0.15594 -0.052,-0.052 -0.10396,-0.15594 -0.15594,-0.31188 -0.052,-0.10396 -0.052,-0.20791 -0.052,-0.36385 -0.10396,-0.67573 -0.20792,-1.35147 -0.20792,-2.07918 -0.10396,-1.14354 -0.052,-2.28709 0,-3.48262 0.052,-1.97521 0.20792,-4.00241 0.41584,-6.02961 0.052,-0.88365 0.15594,-1.81928 0.41583,-2.70293 0,-0.15594 0.052,-0.31188 0.052,-0.46781 0.052,-0.15594 0,-0.31188 -0.052,-0.46782 -0.10396,-0.15594 -0.25989,-0.2599 -0.41583,-0.31187 -0.10396,0 -0.15594,0 -0.2599,0 -0.052,0.052 -0.15594,0.052 -0.20792,0.052 -0.93562,0.31187 -1.87126,0.51979 -2.80688,0.72771 -0.93563,0.25989 -1.87126,0.41583 -2.80689,0.57177 -0.10396,0.052 -0.20792,0.052 -0.2599,0.10396 -0.10396,0.052 -0.15594,0.10396 -0.20792,0.15594 -0.052,0.052 -0.052,0.15594 -0.052,0.25989 -0.052,0.052 -0.052,0.15594 0,0.20792 0,0.10396 0,0.20792 0,0.31188 0.052,0.10396 0.10396,0.15594 0.15594,0.2599 0.052,0.052 0.10396,0.10395 0.20792,0.15593 0.10396,0 0.20792,0 0.31188,0 l 0.36385,0 c 0.2599,0 0.57178,0.052 0.88365,0.10396 0.31188,0.052 0.57178,0.20792 0.77969,0.41584 0.20792,0.20791 0.36386,0.46781 0.46782,0.77969 0.052,0.31187 0.052,0.62375 0.052,0.88365 -0.052,0.88365 -0.10396,1.71532 -0.10396,2.54699 -0.10396,2.23511 -0.15594,4.47023 -0.15594,6.65336 -0.98761,0.5198 -1.97522,1.03959 -2.96283,1.35147 -0.93562,0.36385 -1.97521,0.62375 -2.91084,0.46781 -0.67573,-0.052 -1.35147,-0.2599 -1.81928,-0.72771 -0.36386,-0.2599 -0.67573,-0.62375 -0.88365,-0.98761 -0.20792,-0.41583 -0.36386,-0.83167 -0.41584,-1.29948 -0.31187,-1.29949 -0.31187,-2.65095 -0.25989,-4.00242 0,-1.14354 0.052,-2.28709 0.15593,-3.43064"
         id="path3865" />
      <path
         d="m 441.16032,468.34753 c 0.10396,1.29948 0.57178,2.54699 1.35147,3.58658 0.72771,1.03959 1.7673,1.87126 2.96282,2.39105 0.5198,0.31188 1.14355,0.46782 1.7673,0.57178 -1.09157,0.31187 -2.07918,0.67573 -3.06678,1.09156 -0.5198,0.2599 -0.98761,0.46782 -1.40345,0.67573 -0.20791,0.10396 -0.36385,0.20792 -0.46781,0.31188 -0.10396,0.15594 -0.20792,0.31188 -0.20792,0.5198 -0.052,0.15593 0,0.31187 0,0.51979 0.052,0.15594 0.10396,0.31188 0.20792,0.46781 0.10396,0.41584 0.31187,0.7797 0.62375,1.03959 0.15594,0.2599 0.41584,0.46782 0.67573,0.67573 0.20792,0.2599 0.46782,0.46782 0.77969,0.62376 -0.67573,0.41583 -1.29948,0.83167 -1.81928,1.29948 -0.72771,0.62375 -1.40344,1.35147 -1.87125,2.18314 -0.46782,0.83167 -0.72772,1.7673 -0.67574,2.70293 0,0.93562 0.31188,1.7673 0.7797,2.49501 0.51979,0.72771 1.19552,1.35146 2.02719,1.71532 1.09157,0.62375 2.33908,0.88365 3.5346,0.88365 1.24751,0.052 2.49501,-0.10396 3.69054,-0.36386 2.44303,-0.57177 4.78211,-1.55938 6.70534,-3.17074 0.77969,-0.62375 1.45543,-1.45543 1.92324,-2.39105 0.46781,-0.93563 0.67573,-2.0272 0.57177,-3.06679 -0.15593,-0.93563 -0.62375,-1.87126 -1.29948,-2.59897 -0.72771,-0.72771 -1.61136,-1.19553 -2.54699,-1.5074 -1.45542,-0.36386 -2.91085,-0.31188 -4.36627,-0.20792 -1.5074,0.15594 -2.96283,0.2599 -4.36627,-0.15594 -0.31188,-0.052 -0.62376,-0.15594 -0.88365,-0.36385 -0.10396,-0.10396 -0.20792,-0.20792 -0.2599,-0.36386 -0.10396,-0.15594 -0.15594,-0.31188 -0.10396,-0.46781 0,-0.20792 0.10396,-0.41584 0.2599,-0.62376 0.2599,-0.36385 0.72771,-0.57177 1.19553,-0.77969 l 1.35146,-0.62375 1.5074,-0.67573 c 1.5074,-0.67573 3.06679,-1.35147 4.36627,-2.39106 1.29949,-1.03958 2.2871,-2.54699 2.59897,-4.21033 0.15594,-0.88365 0.10396,-1.7673 -0.052,-2.70293 -0.20791,-0.93562 -0.57177,-1.87126 -1.03958,-2.7549 0.46781,-0.052 0.9876,-0.052 1.5074,0 0.36385,0.10395 0.72771,0.20791 1.09157,0.36385 0.052,0.052 0.15593,0.10396 0.20791,0.15594 0.10396,0 0.20792,0.052 0.31188,0 0.10396,0 0.15594,-0.052 0.2599,-0.10396 0.052,-0.052 0.10396,-0.15594 0.15593,-0.2599 0.10396,-0.25989 0.20792,-0.57177 0.31188,-0.88365 0.052,-0.25989 0.10396,-0.51979 0.15594,-0.83167 0,-0.10396 0,-0.20791 -0.052,-0.25989 0,-0.10396 -0.052,-0.20792 -0.15594,-0.2599 -0.10396,-0.10396 -0.20792,-0.10396 -0.2599,-0.15594 -0.10395,0 -0.20791,0 -0.31187,-0.052 -0.62375,0 -1.29949,0 -1.87126,0 -0.88365,0.052 -1.7673,0.20792 -2.59897,0.36386 -1.66334,-1.29949 -3.89846,-1.92324 -5.97763,-1.61136 -1.40344,0.20791 -2.70293,0.77969 -3.7945,1.61136 -1.19552,0.88365 -2.13115,2.07917 -2.75491,3.37866 -0.62375,1.29948 -0.88365,2.80689 -0.67573,4.21033 m 4.78211,-6.8093 c 0.72771,-0.41584 1.55938,-0.62375 2.44303,-0.62375 1.03959,0.052 2.13115,0.41583 3.0148,1.03958 0.77969,0.62376 1.40345,1.45543 1.81928,2.39106 0.41584,0.88365 0.67574,1.87126 0.77969,2.85886 0.052,0.93563 0,1.81928 -0.25989,2.65095 -0.36386,1.09157 -1.09157,2.07918 -2.0272,2.70293 -0.57177,0.41584 -1.19553,0.67573 -1.81928,0.83167 -0.77969,-0.20791 -1.5074,-0.51979 -2.18313,-0.93563 -1.24751,-0.62375 -2.33908,-1.45542 -3.06679,-2.59897 -0.46781,-0.62375 -0.72771,-1.35146 -0.88365,-2.13115 -0.2599,-1.09157 -0.2599,-2.33908 0.052,-3.43064 0.36386,-1.14355 1.09157,-2.13116 2.13116,-2.75491 m -1.97522,20.9477 c 0.62375,-0.41584 1.29948,-0.77969 2.07918,-1.09157 0.72771,0.20792 1.45542,0.31188 2.23511,0.31188 0.98761,0.10396 1.97522,0.052 3.0148,-0.052 0.83167,-0.052 1.66335,-0.10396 2.547,-0.052 0.41583,0.052 0.83167,0.15594 1.2475,0.31187 0.41584,0.15594 0.77969,0.41584 1.09157,0.72772 0.31188,0.41583 0.51979,0.93563 0.67573,1.40344 0.10396,0.62375 0.10396,1.24751 -0.052,1.7673 -0.20792,0.57177 -0.51979,1.03959 -0.93563,1.45542 -0.36385,0.41584 -0.88365,0.72772 -1.35146,0.93563 -1.61136,0.83167 -3.32669,1.35147 -5.09398,1.50741 -1.55938,0.15593 -3.17075,-10e-6 -4.57419,-0.62376 -0.72771,-0.25989 -1.40345,-0.62375 -1.92324,-1.19552 -0.51979,-0.57178 -0.88365,-1.29949 -0.88365,-2.07918 -0.052,-0.62375 0.15594,-1.29949 0.51979,-1.87126 0.36386,-0.57177 0.83168,-1.03959 1.40345,-1.45542"
         id="path3867" />
      <path
         d="m 469.3957,460.55062 c -0.57178,0.2599 -1.14355,0.57177 -1.66335,0.83167 0,-2.65095 0.052,-5.35388 0.20792,-8.05681 0.10396,-2.23511 0.2599,-4.47023 0.46782,-6.70534 0.052,-0.57177 0.10396,-1.14355 0.36385,-1.71532 0.052,-0.20792 0.15594,-0.41584 0.20792,-0.67573 0,-0.15594 0,-0.2599 -0.052,-0.36386 -0.052,-0.15594 -0.10396,-0.2599 -0.15594,-0.36386 -0.20791,-0.15593 -0.41583,-0.20791 -0.62375,-0.20791 -0.2599,0 -0.46781,0.10396 -0.62375,0.20791 l -0.93563,0.5198 c -0.88365,0.46781 -1.71532,0.93563 -2.54699,1.29948 -0.77969,0.36386 -1.55939,0.67574 -2.2871,0.93563 -0.10396,0.052 -0.20791,0.10396 -0.25989,0.15594 -0.10396,0 -0.15594,0.10396 -0.20792,0.15594 -0.10396,0.15594 -0.15594,0.31188 -0.10396,0.46781 0,0.15594 0,0.31188 0.052,0.41584 0.052,0.15594 0.10396,0.2599 0.20792,0.36386 0.10396,0.10395 0.25989,0.15593 0.41583,0.15593 0.10396,0 0.2599,-0.052 0.41584,-0.10396 l 0.57177,-0.20791 c 0.10396,0 0.20792,-0.052 0.36386,-0.052 0.15593,0 0.25989,0 0.41583,0.052 0.20792,0.15594 0.36386,0.36385 0.46782,0.57177 0.10396,0.2599 0.20791,0.51979 0.25989,0.72771 0.052,0.5198 0.15594,0.98761 0.20792,1.45543 0.052,0.51979 0.052,0.9876 0.10396,1.45542 0,3.48262 -0.052,6.91326 -0.10396,10.3439 -0.10396,3.95043 -0.2599,7.84889 -0.41583,11.69537 -0.052,0.25989 -0.052,0.46781 -0.10396,0.72771 -0.052,0.20792 -0.10396,0.41583 -0.2599,0.62375 -0.10396,0.15594 -0.31188,0.31188 -0.51979,0.41584 -0.20792,0.10395 -0.41584,0.15593 -0.62376,0.15593 l -0.83167,0.15594 c -0.10396,0.052 -0.20792,0.052 -0.25989,0.10396 -0.052,0.052 -0.15594,0.10396 -0.15594,0.15594 -0.052,0.10396 -0.052,0.15594 -0.10396,0.2599 0,0.052 0,0.15593 0.052,0.20791 0,0.10396 0,0.20792 0,0.31188 0.052,0.10396 0.052,0.15594 0.15594,0.2599 0.052,0.052 0.10396,0.10396 0.20791,0.15594 0.10396,0 0.20792,0 0.31188,-0.052 1.2475,-0.15594 2.54699,-0.2599 3.89846,-0.31188 1.35146,0 2.75491,0.10396 4.15835,0.2599 0.052,0.052 0.15594,0.052 0.20792,0.052 0.10395,-0.052 0.15593,-0.052 0.20791,-0.10396 0.10396,-0.052 0.10396,-0.15594 0.15594,-0.20792 0.052,-0.052 0.052,-0.15594 0.10396,-0.2599 0,-0.052 0,-0.15594 0,-0.25989 0,-0.10396 0,-0.20792 -0.052,-0.31188 -0.052,-0.052 -0.10396,-0.15594 -0.20792,-0.20792 -0.10396,-0.052 -0.20791,-0.052 -0.25989,-0.10396 l -1.50741,-0.25989 c -0.25989,0 -0.51979,-0.052 -0.72771,-0.20792 -0.15594,-0.10396 -0.31187,-0.31188 -0.41583,-0.5198 -0.10396,-0.20791 -0.15594,-0.46781 -0.15594,-0.72771 0,-0.20791 0,-0.46781 0,-0.72771 -0.052,-0.98761 -0.10396,-2.0272 -0.052,-3.06678 0,-2.54699 0.10396,-5.09399 0.36385,-7.69296 0.62376,-0.36385 1.35147,-0.62375 2.13116,-0.88365 0.93563,-0.25989 1.92324,-0.41583 2.96283,-0.51979 0.41583,0 0.88365,0 1.29948,0.052 0.46782,0.052 0.88365,0.20792 1.29949,0.41584 0.51979,0.36385 0.93563,0.83167 1.19552,1.40344 0.2599,0.57177 0.41584,1.19553 0.5198,1.81928 0.15593,1.40344 0.20791,2.80689 0.31187,4.21033 0.052,1.81928 0,3.63856 -0.25989,5.40586 -0.052,0.15594 -0.052,0.31187 -0.10396,0.46781 -0.052,0.15594 -0.15594,0.31188 -0.2599,0.41584 -0.052,0.10396 -0.20792,0.20792 -0.31188,0.31187 -0.15593,0.052 -0.31187,0.10396 -0.41583,0.15594 l -0.72771,0.2599 c -0.10396,0.052 -0.15594,0.10396 -0.2599,0.15594 -0.052,0.052 -0.10396,0.10396 -0.15594,0.15594 0,0.10395 -0.052,0.15593 -0.052,0.25989 0,0.052 0,0.15594 0.052,0.20792 0,0.10396 0,0.15594 0,0.2599 0.052,0.052 0.052,0.15594 0.10396,0.20792 0.052,0.052 0.15594,0.052 0.20792,0.10395 0.10396,0 0.15594,0 0.2599,-0.052 1.29948,-0.15593 2.65095,-0.31187 4.00241,-0.36385 1.14355,0 2.33907,0.052 3.5346,0.10396 0.052,0.052 0.15594,0.052 0.20792,0 0.10396,0 0.15593,-0.052 0.25989,-0.10396 0.052,-0.052 0.10396,-0.10396 0.10396,-0.20792 0.052,-0.052 0.052,-0.15594 0.10396,-0.2599 0,-0.052 0,-0.15593 0,-0.25989 -0.052,-0.10396 -0.052,-0.20792 -0.10396,-0.2599 -0.052,-0.10396 -0.15594,-0.15594 -0.20792,-0.20792 -0.10395,0 -0.20791,0 -0.25989,-0.052 l -1.71532,-0.10396 c -0.15594,0 -0.31188,0 -0.46782,-0.052 -0.15594,-0.052 -0.25989,-0.15594 -0.36385,-0.2599 -0.10396,-0.15594 -0.15594,-0.31188 -0.15594,-0.46782 -0.052,-0.15593 -0.052,-0.31187 0,-0.46781 0,-1.14355 0,-2.33908 0.052,-3.5346 0,-1.40344 0,-2.80689 0,-4.26231 -0.052,-0.83167 -0.052,-1.66334 -0.10396,-2.54699 -0.10396,-0.83167 -0.2599,-1.71532 -0.62375,-2.49501 -0.31188,-0.57178 -0.72772,-1.14355 -1.24751,-1.55939 -0.51979,-0.41583 -1.14355,-0.72771 -1.7673,-0.93563 -1.2475,-0.31187 -2.54699,-0.15593 -3.74252,0.10396 -1.2475,0.31188 -2.49501,0.72772 -3.63855,1.19553"
         id="path3869" />
      <path
         d="m 491.82319,466.11242 c 0,-1.45543 0,-2.91085 0.052,-4.41825 0,-0.10396 0,-0.20792 0,-0.31188 0.052,-0.052 0.10396,-0.15594 0.20792,-0.20792 0.052,-0.10396 0.15594,-0.10396 0.2599,-0.15594 0.10395,0 0.20791,0 0.36385,0 1.03959,0.10396 2.13116,0.20792 3.22273,0.20792 0.77969,0.052 1.61136,0.052 2.44303,0.052 0.10396,0.052 0.20791,0 0.31187,0 0.15594,-0.052 0.2599,-0.10396 0.31188,-0.20792 0.10396,-0.052 0.15594,-0.15593 0.20792,-0.31187 0,-0.10396 0,-0.20792 0.052,-0.36386 l 0.052,-0.67573 c 0,-0.052 0,-0.15594 -0.052,-0.2599 0,-0.10396 -0.052,-0.15594 -0.15594,-0.20792 -0.052,-0.10395 -0.15594,-0.10395 -0.2599,-0.10395 -0.10396,-0.052 -0.20792,-0.052 -0.2599,-0.052 l -6.39346,0.15593 0.20792,-2.59897 c 0,-0.10395 0,-0.25989 0,-0.36385 -0.052,-0.052 -0.052,-0.10396 -0.10396,-0.20792 0,-0.052 -0.052,-0.10396 -0.10396,-0.10396 -0.052,-0.052 -0.10396,-0.10396 -0.15594,-0.10396 -0.10396,0 -0.15594,0 -0.20792,0.052 -0.052,0 -0.10396,0.052 -0.15594,0.10396 -0.052,0 -0.10395,0.052 -0.10395,0.10396 -0.93563,1.19553 -1.97522,2.28709 -3.17075,3.11876 -0.57177,0.41584 -1.19553,0.7797 -1.7673,1.09157 -0.15594,0.10396 -0.31187,0.15594 -0.41583,0.2599 -0.052,0.052 -0.10396,0.10396 -0.10396,0.20792 -0.052,0.052 -0.052,0.10396 -0.052,0.20791 0,0.052 0,0.15594 0.052,0.20792 0.052,0.052 0.10396,0.10396 0.15594,0.15594 0.052,0.052 0.15593,0.052 0.20791,0.052 0.10396,0 0.15594,0 0.2599,0 l 1.97522,0 -0.20792,11.01963 c -0.052,0.77969 -0.052,1.55939 0.15594,2.2871 0.2599,0.77969 0.67573,1.45542 1.2475,1.92323 0.62376,0.46782 1.35147,0.7797 2.07918,0.88365 0.77969,0.10396 1.55938,0.052 2.33907,-0.10395 1.71532,-0.31188 3.37867,-1.03959 4.99003,-1.97522 0.052,0 0.10396,-0.052 0.20791,-0.10396 0.052,-0.10396 0.10396,-0.15594 0.10396,-0.2599 0.052,-0.052 0.052,-0.15594 0.052,-0.25989 0,-0.052 0,-0.15594 0,-0.2599 -0.052,-0.052 -0.10396,-0.15594 -0.15594,-0.20792 -0.052,-0.10396 -0.10395,-0.15594 -0.20791,-0.20792 -0.10396,-0.052 -0.20792,-0.052 -0.2599,-0.052 -0.10396,0.052 -0.20792,0.10396 -0.2599,0.10396 -0.72771,0.41584 -1.5074,0.72771 -2.28709,0.93563 -0.77969,0.2599 -1.61136,0.36386 -2.39105,0.20792 -0.36386,-0.052 -0.67574,-0.10396 -0.98761,-0.2599 -0.2599,-0.15594 -0.57178,-0.36385 -0.72771,-0.67573 -0.36386,-0.41583 -0.5198,-0.93563 -0.62376,-1.5074 -0.052,-0.5198 -0.052,-1.09157 0,-1.66334 0,-1.71532 0,-3.43065 0.052,-5.14596"
         id="path3871" />
      <path
         d="m 504.29419,461.01843 c -0.46781,0.5198 -0.88365,1.03959 -1.14355,1.66335 -0.20791,0.62375 -0.36385,1.29948 -0.25989,1.92323 0.052,0.67573 0.25989,1.24751 0.62375,1.7673 0.36385,0.5198 0.83167,0.93563 1.35146,1.29949 1.03959,0.67573 2.2871,1.03959 3.43064,1.55938 0.93563,0.46781 1.87126,1.03959 2.65095,1.7673 0.36386,0.41583 0.62376,0.88365 0.83167,1.35146 0.15594,0.5198 0.20792,1.09157 0.052,1.55939 -0.15594,0.36385 -0.36385,0.72771 -0.62375,0.98761 -0.2599,0.25989 -0.57177,0.46781 -0.93563,0.62375 -0.67573,0.25989 -1.45542,0.31187 -2.18313,0.20792 -0.83167,-0.052 -1.66335,-0.31188 -2.33908,-0.72772 -0.72771,-0.36385 -1.29948,-0.98761 -1.71532,-1.66334 -0.25989,-0.31187 -0.46781,-0.72771 -0.57177,-1.14354 -0.052,-0.052 -0.10396,-0.15594 -0.15594,-0.2599 -0.052,-0.10396 -0.10396,-0.20792 -0.20792,-0.2599 -0.052,-0.10396 -0.15594,-0.15594 -0.25989,-0.15594 -0.10396,0 -0.2599,0 -0.31188,0.052 -0.10396,0.052 -0.20792,0.10396 -0.2599,0.20792 -0.052,0.10396 -0.10396,0.20792 -0.10396,0.31188 -0.052,0.20791 0.052,0.41583 0.10396,0.62375 0.10396,0.57177 0.15594,1.14355 0.20792,1.71532 0,0.67573 -0.10396,1.35147 -0.2599,1.97522 0.98761,0.41583 2.07918,0.72771 3.17075,0.88365 1.81927,0.36385 3.7945,0.31187 5.56179,-0.36386 1.03959,-0.36385 2.0272,-0.98761 2.85887,-1.7673 0.10396,-0.10396 0.2599,-0.20792 0.36386,-0.36385 0.10395,-0.10396 0.20791,-0.2599 0.31187,-0.46782 0.41584,-0.88365 0.5198,-1.92324 0.36386,-2.91084 -0.2599,-1.35147 -1.14355,-2.59898 -2.18314,-3.5346 -0.72771,-0.5198 -1.5074,-0.98761 -2.28709,-1.35147 -0.83167,-0.36385 -1.66334,-0.62375 -2.44303,-1.03959 -0.62375,-0.25989 -1.14355,-0.57177 -1.55938,-1.09156 -0.15594,-0.2599 -0.31188,-0.5198 -0.41584,-0.83168 -0.052,-0.31187 -0.10396,-0.67573 0,-0.9876 0.052,-0.46782 0.31188,-0.88365 0.67573,-1.24751 0.2599,-0.2599 0.67574,-0.51979 1.09157,-0.67573 0.46781,-0.10396 0.98761,-0.10396 1.5074,-0.052 0.72771,0.15594 1.40345,0.51979 2.0272,0.88365 0.67573,0.51979 1.29949,1.14355 1.81928,1.81928 0.052,0.15594 0.15594,0.2599 0.2599,0.36385 0.052,0.052 0.10395,0.10396 0.20791,0.10396 0.052,0 0.15594,0.052 0.20792,0 0.052,0 0.15594,-0.052 0.20792,-0.10396 0.052,0 0.10396,-0.10396 0.10396,-0.15593 0.052,-0.052 0.052,-0.15594 0.052,-0.20792 0,-0.10396 0,-0.15594 0,-0.2599 l -0.5198,-3.63856 c -0.83167,-0.10396 -1.61136,-0.25989 -2.39105,-0.41583 -0.77969,-0.10396 -1.55938,-0.15594 -2.28709,-0.15594 -0.83167,0.052 -1.66335,0.2599 -2.39106,0.57177 -0.88365,0.41584 -1.61136,0.93563 -2.23511,1.61136"
         id="path3873" />
    </g>
    <g
       transform="matrix(1.3281959,0,0,1.3281959,-43.292322,-231.82068)"
       id="text2993"
       style="font-size:40px;font-style:normal;font-variant:normal;font-weight:normal;font-stretch:normal;text-align:start;line-height:125%;letter-spacing:0px;word-spacing:0px;writing-mode:lr-tb;text-anchor:start;fill:#000000;fill-opacity:1;stroke:none;font-family:Husky Stash;-inkscape-font-specification:Husky Stash">
      <path
         d="m 312.41974,558.26799 c -0.26669,0.80001 -0.88003,1.52001 -1.84,2.16 -0.96002,0.64001 -1.93336,0.96001 -2.92,0.96 l -7.48,0 -3.04,9.36 -7.52,0 6.08,-18.72 15,0 c 0.61331,10e-6 1.19997,0.17335 1.76,0.52 0.74664,0.42668 1.11997,1.01335 1.12,1.76 -3e-5,0.26668 -0.0534,0.54668 -0.16,0.84 l -1,3.12 m -7.48,0 1,-3.12 -3.76,0 -1,3.12 3.76,0"
         id="path3006" />
      <path
         d="m 326.03161,570.74799 -3.72,0 3.04,-9.36 -3.76,0 -3.04,9.36 -7.48,0 6.08,-18.72 7.48,0 -2.04,6.24 3.76,0 c 1.91998,10e-6 2.87998,0.70667 2.88,2.12 -2e-5,0.32001 -0.0533,0.65334 -0.16,1 l -3.04,9.36"
         id="path3008" />
      <path
         d="m 345.82349,567.62799 c -0.26669,0.82666 -0.86669,1.56 -1.8,2.2 -0.93335,0.61333 -1.92002,0.92 -2.96,0.92 l -7.48,0 c -0.72001,0 -1.37334,-0.25334 -1.96,-0.76 -0.58667,-0.50667 -0.88001,-1.09334 -0.88,-1.76 -1e-5,-0.21333 0.04,-0.41333 0.12,-0.6 l 2,-6.24 c 0.29333,-0.85333 0.91999,-1.58666 1.88,-2.2 0.98666,-0.61333 1.94666,-0.91999 2.88,-0.92 l 7.48,0 c 0.82665,10e-6 1.50665,0.21334 2.04,0.64 0.55998,0.42667 0.83998,0.97334 0.84,1.64 -2e-5,0.26667 -0.04,0.54667 -0.12,0.84 l -2.04,6.24 m -6.48,-3.12 1.04,-3.12 -3.76,0 -1,3.12 3.72,0"
         id="path3010" />
      <path
         d="m 359.97161,570.74799 -7.48,0 c -0.82667,0 -1.52,-0.2 -2.08,-0.6 -0.53333,-0.4 -0.8,-0.94667 -0.8,-1.64 0,-0.29333 0.04,-0.58667 0.12,-0.88 l 5.08,-15.6 7.48,0 -2,6.24 3.72,0 -1,3.12 -3.76,0 -1,3.12 3.72,0 -2,6.24"
         id="path3012" />
      <path
         d="m 379.57349,567.62799 c -0.26669,0.82666 -0.86669,1.56 -1.8,2.2 -0.93335,0.61333 -1.92002,0.92 -2.96,0.92 l -7.48,0 c -0.72001,0 -1.37334,-0.25334 -1.96,-0.76 -0.58667,-0.50667 -0.88001,-1.09334 -0.88,-1.76 -1e-5,-0.21333 0.04,-0.41333 0.12,-0.6 l 2,-6.24 c 0.29333,-0.85333 0.91999,-1.58666 1.88,-2.2 0.98666,-0.61333 1.94666,-0.91999 2.88,-0.92 l 7.48,0 c 0.82665,10e-6 1.50665,0.21334 2.04,0.64 0.55998,0.42667 0.83998,0.97334 0.84,1.64 -2e-5,0.26667 -0.04,0.54667 -0.12,0.84 l -2.04,6.24 m -6.48,-3.12 1.04,-3.12 -3.76,0 -1,3.12 3.72,0"
         id="path3014" />
      <path
         d="m 397.68161,580.10799 c -0.29335,0.85332 -0.94668,1.58665 -1.96,2.2 -0.98668,0.61332 -1.92001,0.91998 -2.8,0.92 l -108,0 3.08,-9.36 100.48,0 c 2.37333,0 3.94666,-1.04001 4.72,-3.12 0.23999,-0.61334 0.35999,-1.10667 0.36,-1.48 -10e-6,-1.09333 -1.02668,-1.64 -3.08,-1.64 l -3.72,0 c -1.92,0 -2.88,-0.74667 -2.88,-2.24 0,-0.29333 0.04,-0.58666 0.12,-0.88 l 1.04,-3.12 c 0.26666,-0.82666 0.89333,-1.54666 1.88,-2.16 0.98666,-0.63999 1.94666,-0.95999 2.88,-0.96 l 7.48,0 -1.04,3.12 -3.72,0 -1,3.12 7.48,0 c 1.91998,0 2.87998,0.72 2.88,2.16 -2e-5,0.29333 -0.0534,0.61333 -0.16,0.96 l -4.04,12.48"
         id="path3016" />
    </g>
    <g
       id="text2997"
       style="font-size:48px;font-style:normal;font-variant:normal;font-weight:normal;font-stretch:normal;text-align:start;line-height:125%;letter-spacing:0px;word-spacing:0px;writing-mode:lr-tb;text-anchor:start;fill:#000000;fill-opacity:1;stroke:none;font-family:Earwig Factory;-inkscape-font-specification:Earwig Factory">
      <path
         d="m 356.9794,565.4152 -1.344,25.44 -20.496,-1.104 1.296,-25.392 20.544,1.056 m -3.552,3.504 -14.448,-0.768 -0.144,2.688 2.448,0.144 -0.912,16.512 12.432,0.672 0.144,-2.688 -9.696,-0.528 0.288,-5.952 9.024,0.48 0.144,-2.688 -9.024,-0.48 0.288,-5.184 9.312,0.48 0.144,-2.688"
         id="path3836" />
      <path
         d="m 381.7984,586.8232 -17.04,3.696 -4.224,-19.488 17.04,-3.696 4.224,19.488 m -3.984,-3.072 -5.76,-4.848 3.072,-6.48 -1.632,-0.768 -2.928,6.048 -4.752,-4.032 -2.88,0.624 0.384,1.824 1.968,-0.432 4.464,3.744 -3.216,6.72 1.68,0.816 3.024,-6.336 5.376,4.512 1.2,-1.392"
         id="path3838" />
      <path
         d="m 406.4704,570.6952 -0.432,25.248 -20.832,-0.384 0.432,-25.2 20.832,0.336 m -1.92,9.936 c 0.032,-2.01599 -0.44802,-3.74399 -1.44,-5.184 -1.15201,-1.69599 -2.78401,-2.55999 -4.896,-2.592 -1.08801,-0.032 -2.11201,0.22401 -3.072,0.768 l -0.048,-0.576 -5.28,-0.096 -0.048,3.936 1.632,0.048 -0.288,15.792 3.888,0.096 0.096,-5.232 c 0.92799,0.512 1.93599,0.768 3.024,0.768 2.04799,0.064 3.67999,-0.816 4.896,-2.64 0.99198,-1.472 1.50398,-3.168 1.536,-5.088 m -3.936,-0.144 c -10e-6,1.056 -0.24001,1.984 -0.72,2.784 -0.44801,0.8 -1.02401,1.2 -1.728,1.2 -0.86401,-0.032 -1.55201,-0.4 -2.064,-1.104 -0.48001,-0.704 -0.70401,-1.6 -0.672,-2.688 -1e-5,-1.08799 0.25599,-2.01599 0.768,-2.784 0.51199,-0.76799 1.16799,-1.15199 1.968,-1.152 0.79999,0.032 1.40799,0.40001 1.824,1.104 0.44799,0.67201 0.65599,1.55201 0.624,2.64"
         id="path3840" />
      <path
         d="m 439.0219,566.2312 -3.264,29.424 -25.392,-2.832 3.264,-29.424 25.392,2.832 m -4.272,16.944 c 0.064,-1.056 0.096,-2 0.096,-2.832 -2e-5,-6.65599 -2.48002,-10.25599 -7.44,-10.8 -0.38401,-0.032 -0.75201,-0.048 -1.104,-0.048 -2.78401,2e-5 -5.10401,1.13601 -6.96,3.408 -1.728,2.11201 -2.592,4.57601 -2.592,7.392 0,2.752 0.816,5.088 2.448,7.008 1.69599,2.016 3.90399,3.02399 6.624,3.024 3.48798,-10e-6 6.30398,-1.968 8.448,-5.904 l -6.24,-0.672 c -0.73601,0.512 -1.50401,0.768 -2.304,0.768 -1.63201,0 -2.65601,-0.896 -3.072,-2.688 l 12.096,1.344 m -6,-6.192 -4.944,-0.528 c 0.73599,-0.89599 1.63199,-1.29599 2.688,-1.2 1.02399,0.12801 1.77599,0.70401 2.256,1.728"
         id="path3842" />
      <path
         d="m 451.78615,571.5112 -0.288,16.8 -10.032,-0.144 0.288,-16.848 10.032,0.192 m -0.768,2.544 c -0.544,-0.064 -0.992,-0.096 -1.344,-0.096 -1.408,-0.032 -2.528,0.36801 -3.36,1.2 l -0.096,-1.056 -2.976,-0.048 -0.048,1.824 1.344,0 c 0,1.05601 0,2.22401 0,3.504 -0.064,1.504 -0.128,3.744 -0.192,6.72 l 1.824,0.048 0.432,-6.816 c 0.128,-2.36799 1.264,-3.53599 3.408,-3.504 0.256,1e-5 0.52799,0.016 0.816,0.048 l 0.192,-1.824"
         id="path3844" />
      <path
         d="m 472.3444,557.7832 -1.824,34.656 -14.208,-0.72 1.824,-34.656 14.208,0.72 m -3.984,5.76 -3.744,-0.192 -0.24,4.512 3.744,0.192 0.24,-4.512 m -0.336,6.816 -5.472,-0.288 -0.192,3.744 1.728,0.096 -0.768,13.872 3.744,0.192 0.96,-17.616"
         id="path3846" />
      <path
         d="m 509.21365,568.4872 -0.528,21.936 -32.496,-0.768 0.48,-21.888 32.544,0.72 m -5.52,10.704 c 0.032,-1.66399 -0.46402,-3.08799 -1.488,-4.272 -0.99202,-1.18399 -2.35202,-1.80799 -4.08,-1.872 -1.63202,-0.032 -3.05602,0.51201 -4.272,1.632 -1.08801,-1.18399 -2.41601,-1.79199 -3.984,-1.824 -0.96001,-0.032 -1.88801,0.17601 -2.784,0.624 l 0,-0.384 -5.232,-0.144 -0.048,3.936 1.44,0.048 c 0.032,0.48001 -0.032,3.872 -0.192,10.176 l 3.888,0.144 c 0.064,-1.792 0.20799,-4.336 0.432,-7.632 0.064,-0.83199 0.31999,-1.51999 0.768,-2.064 0.47999,-0.54399 1.05599,-0.79999 1.728,-0.768 1.02399,10e-6 1.56799,0.70401 1.632,2.112 0.032,1.664 0.048,4.48 0.048,8.448 l 3.888,0.048 0.192,-7.68 c 0.032,-0.79999 0.25598,-1.45599 0.672,-1.968 0.44798,-0.54399 1.00798,-0.79999 1.68,-0.768 1.21598,0.032 1.80798,0.73601 1.776,2.112 l -0.192,9.312 3.888,0.096 0.24,-9.312"
         id="path3848" />
      <path
         d="m 542.24065,566.2312 -3.264,29.424 -25.392,-2.832 3.264,-29.424 25.392,2.832 m -4.272,16.944 c 0.064,-1.056 0.096,-2 0.096,-2.832 -2e-5,-6.65599 -2.48002,-10.25599 -7.44,-10.8 -0.38401,-0.032 -0.75201,-0.048 -1.104,-0.048 -2.78401,2e-5 -5.10401,1.13601 -6.96,3.408 -1.728,2.11201 -2.592,4.57601 -2.592,7.392 0,2.752 0.816,5.088 2.448,7.008 1.69599,2.016 3.90399,3.02399 6.624,3.024 3.48798,-10e-6 6.30398,-1.968 8.448,-5.904 l -6.24,-0.672 c -0.73601,0.512 -1.50401,0.768 -2.304,0.768 -1.63201,0 -2.65601,-0.896 -3.072,-2.688 l 12.096,1.344 m -6,-6.192 -4.944,-0.528 c 0.73599,-0.89599 1.63199,-1.29599 2.688,-1.2 1.02399,0.12801 1.77599,0.70401 2.256,1.728"
         id="path3850" />
      <path
         d="m 572.4289,568.1512 -1.68,23.712 -24.768,-1.728 1.632,-23.712 24.816,1.728 m -4.272,9.456 c 0.12798,-1.88799 -0.38402,-3.53599 -1.536,-4.944 -1.15202,-1.40799 -2.67202,-2.17599 -4.56,-2.304 -1.40801,-0.096 -2.73601,0.22401 -3.984,0.96 l -0.048,-0.864 -5.184,-0.384 -0.288,3.744 1.776,0.096 c -0.064,2.65601 -0.36801,6.896 -0.912,12.72 l 3.696,0.336 c 0.19199,-2.08 0.52799,-5.056 1.008,-8.928 0.15999,-1.21599 0.55999,-2.19199 1.2,-2.928 0.67199,-0.73599 1.51999,-1.07199 2.544,-1.008 0.83199,0.064 1.47199,0.40001 1.92,1.008 0.47998,0.60801 0.68798,1.36001 0.624,2.256 l -0.768,11.136 3.744,0.288 0.768,-11.184"
         id="path3852" />
      <path
         d="m 590.42215,569.3032 -1.296,24.096 -12.672,-0.672 1.248,-24.096 12.72,0.672 m -1.968,4.752 -3.36,-0.192 0.144,-2.976 -2.976,-0.144 -0.144,2.976 -2.736,-0.144 -0.144,2.976 2.736,0.144 -0.432,7.824 c -0.128,2.304 1.04,3.52 3.504,3.648 0.41599,0.032 1.10399,0.016 2.064,-0.048 l -0.144,-2.976 c -1.34401,0.064 -1.98401,0.112 -1.92,0.144 -0.35201,-0.032 -0.52801,-0.224 -0.528,-0.576 l 0.432,-7.872 3.36,0.192 0.144,-2.976"
         id="path3854" />
      <path
         d="m 606.30115,587.2072 -11.184,0.192 -0.336,-20.688 11.232,-0.144 0.288,20.64 m -2.112,-4.896 c -0.032,-1.632 -0.88001,-2.68799 -2.544,-3.168 -0.672,-0.12799 -1.36,-0.36799 -2.064,-0.72 0,-0.44799 0.336,-0.67199 1.008,-0.672 0.544,10e-6 0.944,0.38401 1.2,1.152 l 2.304,0.096 c -0.064,-0.41599 -0.16001,-0.91199 -0.288,-1.488 -0.44801,-1.75999 -1.6,-2.62399 -3.456,-2.592 -0.832,10e-6 -1.536,0.28801 -2.112,0.864 -0.672,0.64001 -0.992,1.52001 -0.96,2.64 0.032,1.376 0.608,2.352 1.728,2.928 0.576,0.16 1.136,0.32 1.68,0.48 0.864,0.256 1.296,0.512 1.296,0.768 0,0.192 -0.192,0.384 -0.576,0.576 -0.352,0.192 -0.64,0.288 -0.864,0.288 -0.544,0 -0.992,-0.448 -1.344,-1.344 l -2.256,-0.192 c 0.512,2.88 1.824,4.304 3.936,4.272 0.928,0 1.71199,-0.336 2.352,-1.008 0.67199,-0.704 0.99199,-1.664 0.96,-2.88"
         id="path3856" />
    </g>
    <path
       d="m 306.35352,444.40747 7.85718,0 0,156.96401 -7.85718,0 z"
       id="rect3018"
       style="fill:#1a1a1a" />
  </g>
</svg>
